<svg width="205" height="179" viewBox="0 0 205 179" fill="none" xmlns="http://www.w3.org/2000/svg">
<path fill-rule="evenodd" clip-rule="evenodd" d="M54.5849 1.95472C49.2521 4.36603 36.8055 17.9387 34.2285 23.4979C31.1975 30.0352 30.764 34.8087 32.6878 41.4011C35.0666 49.5497 41.4543 55.9119 49.6353 58.2813C60.6028 61.4568 66.5827 57.7698 80.6419 47.3153C88.0638 40.2911 89.2511 38.6593 90.7405 33.4347C94.3344 20.8308 88.1942 7.39013 76.3403 1.91175C70.7867 -0.655057 60.3101 -0.633566 54.5849 1.95472ZM36.2827 25.544C33.6708 31.6823 34.7061 39.5106 36.7963 43.4472C39.0642 49.0739 43.603 52.5819 47.581 54.7007C51.746 56.9186 62.5461 56.9401 66.5827 54.7007L70.1776 52.1839H64.2388C51.3136 52.0765 40.8534 41.9904 39.0642 27.9103L38.8505 20.4288L36.2827 25.544ZM149.266 41.4011C139.216 48.3732 132.016 53.6019 131.805 54.7007C132.318 55.7237 134.372 54.7007 150.806 43.9587C159.461 37.9289 166.562 32.5314 167.24 32.7053C167.918 32.8802 176.328 38.8374 185.215 44.9818L202.162 56.2352V89.484V121.71H122.561H43.9861V117.618L43.9862 112.502H56.3116C65.5557 112.502 69.2377 112.502 69.6641 111.991C69.9428 111.657 69.4916 104.327 69.6641 94.0877V77.7191L87.6387 64.9311L104.637 54.0571L122.047 64.9311L138.994 77.2075L139.508 94.5992C139.543 110.437 138.628 111.485 140.467 112.467C143.617 111.991 187.419 111.991 189.323 111.991C191.014 109.253 189.087 109.433 165.7 109.433H142.549V91.7858L142.076 75.673L124.615 63.3965C114.793 56.6444 105.668 51.2499 104.637 51.12C103.607 50.9891 94.9569 56.492 85.0709 63.3965L66.8138 76.1845V91.8247V109.433H55.2845C42.9591 109.945 42.9591 110.968 43.9861 105.97C43.9861 104.476 43.901 102.821 45.5269 101.76C51.4554 97.8914 53.4716 85.8379 49.1218 76.696C46.9803 72.1946 43.6863 68.5117 42.4455 68.5117C41.2048 68.5117 37.3973 72.1946 35.2557 76.696C31.0897 85.4512 32.9201 97.3676 38.3371 100.737C39.6569 101.558 40.9049 103.592 40.9049 105.341V109.433H28.0659H15.2268L14.7133 100.344C14.7133 93.4871 14.7133 92.0416 17.7946 90.5071C25.1508 83.8767 24.4709 71.5808 17.7946 59.8159C13.9573 54.185 11.6895 56.4521 7.00991 66.4656C2.55428 76.0004 4.07236 86.0671 10.0913 89.9955C12.5738 91.616 12.1455 92.7986 12.1455 100.344V109.433H6.49635C2.23382 109.433 0.388934 109.433 0.151855 110.048C-0.195311 110.948 0.0595104 110.982 0.847309 111.479C1.63613 111.977 11.0805 111.982 21.3896 111.991L40.9049 112.502V117.618V121.71L35.2557 122.221C32.7465 122.221 31.4564 122.234 31.1473 122.733C29.2676 125.761 33.715 124.267 118.966 124.779H205V89.9361L204.216 54.7007L187.269 42.9357C177.342 36.0445 168.447 29.9012 167.754 29.6362C167.059 29.3712 158.845 34.7575 149.266 41.4011ZM11.1184 63.3965C10.194 64.8011 9.06414 66.6835 9.06414 66.9771C9.06414 68.0002 17.4752 71.5808 18.8217 71.5808C20.1365 71.5808 17.8111 64.2395 15.7404 62.3735C12.6591 59.3043 12.6858 61.0138 11.1184 63.3965ZM7.00991 74.6499C7.00991 77.2075 8.03703 77.7191 13.1726 79.7651C17.2184 81.2567 19.4992 82.1431 20.3624 80.7882C22.3176 77.7191 20.876 75.1615 14.7133 73.1154C7.52347 70.0463 8.03702 69.0232 7.00991 74.6499ZM39.8777 74.6499C37.7352 78.7759 38.4171 78.9672 42.1887 80.2767C49.1218 83.8573 49.1485 81.1196 45.5269 75.1615L42.1733 71.2176L39.8777 74.6499ZM7.52347 82.3227C7.52347 84.2164 11.6083 88.9725 13.6862 88.9725C14.5613 88.9725 16.6289 87.709 17.2811 86.9264C18.2291 85.7878 18.5403 84.6819 16.254 83.8573C14.6825 83.2916 12.1075 82.2102 11.1184 81.8112C9.89713 81.3181 7.52347 81.314 7.52347 82.3227ZM35.7693 85.3919C35.7693 88.0518 37.3787 88.7116 42.1887 90.5071L45.5269 91.5301L48.6082 92.0416L49.1218 89.8195C49.5316 86.7003 49.4679 85.9013 42.9591 83.3458L36.7963 81.8112L35.7693 83.3458V85.3919ZM36.7963 92.5531C36.7963 93.0503 35.7693 95.1107 38.8506 97.1568C41.4184 100.344 42.5318 100.089 43.9862 99.2029C48.6082 96.3874 46.6978 95.1936 41.932 93.5762C39.3642 92.0416 36.7963 92.0559 36.7963 92.5531ZM30.6336 165.7V179H39.3641C47.0675 179 47.0675 179 47.0675 177.465C47.0675 175.931 47.0675 175.931 41.4183 175.931H33.7149V164.166C33.7149 153.083 33.7149 152.401 32.1743 152.401C30.6336 152.401 30.6336 153.083 30.6336 165.7ZM55.2844 165.189C52.4927 172.022 50.1488 177.977 50.1488 178.488C50.1488 178.488 50.1488 179 51.1441 179C52.657 179 53.0021 178.049 53.7437 175.931C54.7811 172.967 54.2573 172.862 61.8364 172.862C69.7156 172.862 68.8208 172.35 70.1776 175.931C70.9541 177.98 71.2201 179 72.6385 179C73.6602 179 74.286 178.488 72.7454 174.908C71.2047 172.35 69.0734 166.529 67.0962 161.608C61.4471 149.332 61.4471 148.82 55.2844 165.189ZM77.881 153.936C77.881 155.142 78.2805 155.47 83.5301 155.47C87.202 155.47 90.7199 155.176 90.7199 155.47C90.7199 155.765 87.202 161.014 83.5301 166.483C79.8582 171.952 76.8538 177.006 76.8538 177.713C76.8538 178.656 79.4586 179 86.6115 179C94.6004 179 96.3691 178.722 96.3691 177.465C96.3691 176.256 94.9301 175.931 89.5829 175.931C78.9081 175.931 80.4487 178.846 89.1792 163.654C92.5913 158.601 95.3419 153.424 94.8284 152.912C94.1763 152.263 92.6725 152.401 86.6115 152.401C78.6225 152.401 77.881 152.679 77.881 153.936ZM99.964 152.912C99.964 153.217 102.044 157.283 104.586 161.608C108.314 167.953 109.722 170.203 109.722 174.141C109.722 178.339 110.235 177.977 110.749 179C112.513 179 112.639 178.315 112.649 174.141C112.658 170.221 113.202 167.285 116.911 161.097C119.441 156.877 121.527 153.335 121.533 152.912C121.54 152.49 121.153 152.401 120.063 152.401C118.7 152.401 117.672 154.369 115.371 158.539C113.527 161.879 111.168 164.936 110.749 164.677C110.235 164.677 108.082 161.943 106.127 158.539C103.977 154.797 102.751 152.401 101.43 152.401C100.341 152.401 99.964 152.608 99.964 152.912ZM127.183 165.7C127.183 178.236 127.696 179 128.173 179C130.017 179 130.215 178.158 130.484 169.139V158.539L137.791 169.139C142.5 175.761 144.859 179 146.184 179C147.509 179 147.211 178.138 147.211 165.7C147.211 153.083 147.725 152.912 146.698 152.401C144.784 152.401 144.644 153.083 144.644 162.337V167.747V173.373L137.454 163.143C132.191 155.611 130.221 152.426 128.466 152.415C127.015 152.406 127.696 152.912 127.183 165.7ZM155.942 165.7V179H163.691C170.551 179 171.732 178.711 173.963 176.488C175.349 175.107 175.457 173.545 175.457 172.702C175.457 170.492 173.458 165.7 172.376 165.7C171.869 165.7 172.524 163.883 173.403 162.631C174.43 159.051 175.352 157.412 172.889 154.959C171.201 153.277 169.979 152.401 163.645 152.401H155.942V165.7ZM158.51 159.393L159.023 163.654H164.467C169.181 163.654 171.862 164.166 171.349 159.393C171.349 157.04 169.808 155.47 163.713 155.47C158.51 154.959 158.51 154.447 158.51 159.393ZM58.8793 163.143C57.6324 166.029 56.8251 169.475 56.8251 169.793C56.8251 170.111 59.4185 169.793 61.9607 169.793C64.5028 169.793 67.1301 169.704 67.0962 169.281C67.0613 168.859 65.7897 165.925 64.5284 163.143L61.9606 156.493L59.9064 160.585L58.8793 163.143ZM159.023 172.35C158.51 176.954 157.996 176.488 163.388 175.917C168.523 175.895 171.862 177.465 172.889 172.862C173.87 169.786 171.862 166.212 165.699 166.212L159.023 166.724V172.35Z" fill="#D1BB9B"/>
<path fill-rule="evenodd" clip-rule="evenodd" d="M52.2031 9.23499C46.3558 10.4796 43.7115 11.8816 39.5149 15.9607C34.1044 21.2202 31.7421 26.7933 31.7421 34.2936C31.7421 41.7642 34.0757 47.1902 39.5211 52.3812C49.2615 61.6666 63.6403 61.872 73.4843 52.8645C79.509 47.3517 81.8856 42.0994 81.9143 34.2384C81.9574 22.4464 74.893 13.2416 63.1277 9.75919C56.3921 8.21302 57.9301 8.21299 52.2031 9.23499ZM47.5892 14.2052C26.1573 24.3868 33.3436 56.349 57.0405 56.2407C78.7267 56.1415 86.7394 27.7374 68.4798 15.6951C62.899 12.0144 53.5975 11.3512 47.5892 14.2052ZM148.582 41.521C132.265 52.8623 129.701 55.2177 132.777 55.2177C133.495 55.2177 141.772 50.1004 150.725 43.906L167.001 32.6433L184.439 44.7092L201.877 56.7741L201.887 89.2175L201.897 121.661H122.949H44.0006V117.063V112.464H56.8169H69.6332V95.1492V77.8342L86.6235 66.0268C95.9671 59.533 104.157 54.2419 104.823 54.2706C105.487 54.2981 113.414 59.4932 122.436 65.8143L138.841 77.3079L139.122 94.8856L139.402 112.464H164.498C189.594 112.464 189.594 112.488 189.594 110.932C189.594 109.375 189.594 109.399 166.012 109.399H142.43V92.6733V75.9489L124.242 63.3322C114.238 56.3929 105.356 50.7309 104.505 50.7503C103.653 50.7687 94.7655 56.4828 84.7565 63.4477L66.5573 76.1103V92.7551V109.399H55.279H44.0006V106.435C44.0006 104.427 45.1264 102.35 47.4969 99.9876C53.6918 93.8137 53.5934 82.9505 47.2478 72.6126C43.4234 66.3804 41.2979 66.5715 37.1321 73.52C31.2366 83.3521 31.3699 93.9496 37.4654 100.024C39.8041 102.355 40.9247 104.433 40.9247 106.435V109.399H28.1084H15.2921V100.831C15.2921 92.9124 15.4787 92.1409 17.7539 90.6552C21.4727 88.2263 23.8975 80.8833 23.2013 74.1596C22.6405 68.747 18.5434 59.5504 15.6131 57.1266C13.749 55.5846 10.6752 58.3947 7.61568 64.4379C2.82238 73.9032 3.52984 84.611 9.26538 89.4208C12.0911 91.7905 12.2162 92.2656 12.2162 100.597V109.297L6.1522 109.375C-0.168089 109.375 0.000431935 109.399 0.000431935 110.908C0.000431935 111.93 0.00043305 111.93 20.675 112.23L40.9247 112.507V117.028V121.549L35.886 121.637C31.2721 121.637 30.7595 121.86 30.7595 123.17C30.7595 125.725 30.7595 124.192 117.751 124.726H205L204.73 89.7437L204.461 54.761L186.518 42.266C176.649 35.3951 167.883 29.7699 167.037 29.7668C166.191 29.7638 157.886 35.0538 148.582 41.521ZM12.7125 61.4582C12.2388 62.2542 11.1919 63.9351 10.385 65.193C8.97831 67.3889 9.11569 67.5657 13.789 69.5614C16.4671 70.7058 18.8458 71.4548 19.0755 71.2259C19.9306 70.3737 18.1671 65.7519 15.9083 62.9296C14.0566 60.6152 13.3953 60.3106 12.7125 61.4582ZM7.70898 72.9712C6.75853 76.5007 6.87848 76.6826 11.4472 78.6322C20.1562 82.3476 20.4186 82.3456 20.4176 78.5566C20.4166 75.349 20.0916 75.0497 14.3581 72.9712L8.30058 70.7753L7.70898 72.9712ZM41.177 72.8793C40.6243 73.5751 39.6636 75.1232 39.0423 76.3178C38.0118 78.3001 38.3194 78.6455 42.557 80.258C45.111 81.2297 47.4364 81.7918 47.7235 81.5056C48.3428 80.8874 44.4384 73.0029 43.1066 72.1824C42.598 71.8697 41.7296 72.1834 41.177 72.8793ZM8.115 82.2444C8.115 84.1829 12.128 88.962 13.7552 88.962C15.5474 88.962 18.5464 85.9884 17.8636 84.8879C17.5755 84.424 15.2644 83.3388 12.7278 82.4774C9.05417 81.2308 8.115 81.1827 8.115 82.2444ZM36.1919 83.2826C35.0128 86.344 36.4452 88.2018 41.4374 90.0891C48.2967 92.6805 49.1272 92.5671 49.1272 89.0356C49.1272 86.342 48.5602 85.8321 43.449 83.9264C36.6923 81.4065 36.9066 81.4259 36.1919 83.2826ZM36.8235 93.6063C36.8235 94.4748 37.9985 96.3571 39.4339 97.7876C41.8034 100.149 42.2484 100.254 44.2477 98.9311C47.7635 96.6043 47.4426 95.51 42.719 93.7125C37.2695 91.6382 36.8235 91.63 36.8235 93.6063ZM30.6717 165.6V178.884H38.8741C47.0765 178.884 47.0765 178.884 47.0765 177.4C47.0765 175.818 47.0765 175.818 40.9247 175.818H33.7476V164.067C33.7476 152.316 33.7476 152.316 32.1758 152.316C30.6717 152.316 30.6717 152.316 30.6717 165.6ZM59.4458 154.615C58.9465 155.88 56.4724 161.857 53.9492 167.899C49.3618 178.884 49.6552 178.884 51.0701 178.884C52.7157 178.884 52.7794 178.884 53.9399 175.818C55.2261 172.421 54.7663 172.753 61.9076 172.753C69.0488 172.753 68.6079 172.242 69.787 175.818C70.3766 177.504 71.5065 178.884 72.297 178.884C74.1887 178.884 74.1138 177.97 71.7853 172.627C70.7129 170.168 68.3629 164.59 66.5624 160.235C63.1902 152.076 61.1017 150.426 59.4458 154.615ZM77.8357 153.802C77.8357 155.358 77.8131 155.126 84.5001 155.358H87.62H88.6892H90.7398L83.4748 166.111C79.3736 172.242 76.2977 177.815 76.8104 178.35C76.8104 179.371 81.1935 178.884 86.5507 178.884C96.2911 178.86 96.2911 178.86 96.2911 177.351C96.2911 175.842 96.2911 175.795 89.114 175.818C85.0128 175.832 82.4495 175.818 82.4495 175.818C82.4495 175.475 84.9359 170.251 88.6014 164.976C92.2668 159.7 95.2658 154.158 95.2658 153.314C95.2658 152.293 95.2658 152.293 86.5507 152.316C77.8357 152.293 77.8357 152.293 77.8357 153.802ZM100.264 154.104C100.796 155.087 103.12 159.104 105.427 163.029C108.56 168.362 109.62 171.268 109.62 174.525C109.708 178.86 109.708 178.86 111.158 178.884C112.742 178.91 112.742 178.884 112.742 173.519C112.78 169.064 113.552 166.861 117.3 160.519C119.78 156.32 122.169 152.69 121.399 152.473C118.936 151.782 118.423 152.293 114.491 159.438C110.57 166.375 110.766 166.414 105.928 157.682C103.043 152.317 103.043 152.317 101.125 152.317C99.4549 152.293 99.4549 152.293 100.264 154.104ZM127.05 165.6C127.138 178.884 127.138 178.884 128.552 178.884C130.214 178.884 130.214 178.86 130.347 168.554V158.723L137.904 169.153C144.568 178.86 144.056 178.874 146.275 178.874C147.644 178.874 147.556 175.534 147.556 165.515C147.644 152.293 147.644 152.293 146.106 152.293C144.568 152.293 144.583 152.463 144.568 163.022C144.528 168.467 144.684 172.729 144.568 172.729C144.453 172.729 141.279 168.155 137.253 162.535C130.347 152.316 130.347 152.316 128.492 152.316C127.138 152.293 126.962 152.316 127.05 165.6ZM155.759 165.6V178.884H162.797C168.366 178.884 171.14 179.003 173.277 177.328C176.356 174.914 176.097 170.339 173.712 166.947C171.739 164.044 171.739 165.6 173.599 162.055C175.84 154.336 172.764 152.316 162.707 152.316H155.759V165.6ZM158.923 159.445V163.533H165.074C170.73 163.239 170.959 162.805 171.226 160.467C171.651 156.76 169.893 155.417 163.705 155.397L158.923 155.358V159.445ZM60.6557 159.469C60.0887 160.874 59.7288 161.513 58.0165 165.855C56.3043 170.198 57.3296 169.687 57.4373 169.687C57.545 169.687 53.8456 169.687 61.4831 169.687C69.1206 169.687 66.6363 169.687 64.0597 162.024C61.4831 154.36 61.4308 157.936 60.6557 159.469ZM158.923 166.598C158.923 166.598 158.835 169.747 158.835 171.902V175.818H164.269C167.258 175.818 170.549 175.958 171.226 175.284C173.11 173.407 172.418 168.292 170.201 167.109C169.688 166.087 158.923 166.598 158.923 166.598Z" fill="black" fill-opacity="0.735"/>
</svg>
